<svg xmlns="http://www.w3.org/2000/svg" xmlns:xlink="http://www.w3.org/1999/xlink" contentStyleType="text/css" data-diagram-type="CLASS" height="974px" preserveAspectRatio="none" style="width:694px;height:974px;background:#FFFFFF;" version="1.1" viewBox="0 0 694 974" width="694px" zoomAndPan="magnify"><defs/><g><!--class RiskToARESMapping--><a href="" target="_top" title="An umbrella object that holds mapping instances from AI Atlas Nexus to ARES." xlink:actuate="onRequest" xlink:href="" xlink:show="new" xlink:title="An umbrella object that holds mapping instances from AI Atlas Nexus to ARES." xlink:type="simple"><g class="entity" data-entity="RiskToARESMapping" data-source-line="1" data-uid="ent0002" id="entity_RiskToARESMapping"><rect fill="#F1F1F1" height="48" rx="2.5" ry="2.5" style="stroke:#181818;stroke-width:0.5;" width="175.2539" x="511.96" y="55.89"/><ellipse cx="526.96" cy="71.89" fill="#ADD1B2" rx="11" ry="11" style="stroke:#181818;stroke-width:1;"/><path d="M529.9288,77.5306 Q529.3506,77.8275 528.71,77.9681 Q528.0694,78.1244 527.3663,78.1244 Q524.8663,78.1244 523.5381,76.4837 Q522.2256,74.8275 522.2256,71.7025 Q522.2256,68.5775 523.5381,66.9212 Q524.8663,65.265 527.3663,65.265 Q528.0694,65.265 528.71,65.4212 Q529.3663,65.5775 529.9288,65.8744 L529.9288,68.5931 Q529.3038,68.015 528.71,67.7494 Q528.1163,67.4681 527.4913,67.4681 Q526.1475,67.4681 525.46,68.5462 Q524.7725,69.6087 524.7725,71.7025 Q524.7725,73.7962 525.46,74.8744 Q526.1475,75.9369 527.4913,75.9369 Q528.1163,75.9369 528.71,75.6712 Q529.3038,75.39 529.9288,74.8119 L529.9288,77.5306 Z " fill="#000000"/><text fill="#000000" font-family="sans-serif" font-size="14" lengthAdjust="spacing" textLength="143.2539" x="540.96" y="76.7367">RiskToARESMapping</text><line style="stroke:#181818;stroke-width:0.5;" x1="512.96" x2="686.2139" y1="87.89" y2="87.89"/><line style="stroke:#181818;stroke-width:0.5;" x1="512.96" x2="686.2139" y1="95.89" y2="95.89"/></g></a><!--class RiskToARESIntent--><a href="" target="_top" title="The Entity holding mapping information from risk Id to the ARES red teaming configuration." xlink:actuate="onRequest" xlink:href="" xlink:show="new" xlink:title="The Entity holding mapping information from risk Id to the ARES red teaming configuration." xlink:type="simple"><g class="entity" data-entity="RiskToARESIntent" data-source-line="4" data-uid="ent0003" id="entity_RiskToARESIntent"><rect fill="#F1F1F1" height="162.0781" rx="2.5" ry="2.5" style="stroke:#181818;stroke-width:0.5;" width="163.3066" x="324.94" y="229.78"/><ellipse cx="342.9401" cy="245.78" fill="#ADD1B2" rx="11" ry="11" style="stroke:#181818;stroke-width:1;"/><path d="M345.9089,251.4206 Q345.3308,251.7175 344.6901,251.8581 Q344.0495,252.0144 343.3464,252.0144 Q340.8464,252.0144 339.5183,250.3737 Q338.2058,248.7175 338.2058,245.5925 Q338.2058,242.4675 339.5183,240.8112 Q340.8464,239.155 343.3464,239.155 Q344.0495,239.155 344.6901,239.3112 Q345.3464,239.4675 345.9089,239.7644 L345.9089,242.4831 Q345.2839,241.905 344.6901,241.6394 Q344.0964,241.3581 343.4714,241.3581 Q342.1276,241.3581 341.4401,242.4362 Q340.7526,243.4987 340.7526,245.5925 Q340.7526,247.6862 341.4401,248.7644 Q342.1276,249.8269 343.4714,249.8269 Q344.0964,249.8269 344.6901,249.5612 Q345.2839,249.28 345.9089,248.7019 L345.9089,251.4206 Z " fill="#000000"/><text fill="#000000" font-family="sans-serif" font-size="14" lengthAdjust="spacing" textLength="124.6396" x="357.6068" y="250.6267">RiskToARESIntent</text><line style="stroke:#181818;stroke-width:0.5;" x1="325.94" x2="487.2466" y1="261.78" y2="261.78"/><text fill="#000000" font-family="sans-serif" font-size="14" lengthAdjust="spacing" textLength="98.6289" x="330.94" y="278.7751">risk_id : string</text><text fill="#000000" font-family="sans-serif" font-size="14" lengthAdjust="spacing" textLength="81.3955" x="330.94" y="295.072">id(i) : string</text><text fill="#000000" font-family="sans-serif" font-size="14" lengthAdjust="spacing" textLength="108.3223" x="330.94" y="311.3689">name(i) : string</text><text fill="#000000" font-family="sans-serif" font-size="14" lengthAdjust="spacing" textLength="146.46" x="330.94" y="327.6657">description(i) : string</text><text fill="#000000" font-family="sans-serif" font-size="14" lengthAdjust="spacing" textLength="65.4678" x="330.94" y="343.9626">url(i) : uri</text><text fill="#000000" font-family="sans-serif" font-size="14" lengthAdjust="spacing" textLength="147.2803" x="330.94" y="360.2595">dateCreated(i) : date</text><text fill="#000000" font-family="sans-serif" font-size="14" lengthAdjust="spacing" textLength="151.3066" x="330.94" y="376.5564">dateModified(i) : date</text><line style="stroke:#181818;stroke-width:0.5;" x1="325.94" x2="487.2466" y1="383.8581" y2="383.8581"/></g></a><!--class AresIntent--><a href="" target="_top" title="ARES uses intent to map and automatically run series of attacks." xlink:actuate="onRequest" xlink:href="" xlink:show="new" xlink:title="ARES uses intent to map and automatically run series of attacks." xlink:type="simple"><g class="entity" data-entity="AresIntent" data-source-line="14" data-uid="ent0005" id="entity_AresIntent"><rect fill="#F1F1F1" height="145.7813" rx="2.5" ry="2.5" style="stroke:#181818;stroke-width:0.5;" width="163.3066" x="286.94" y="468.86"/><ellipse cx="328.3098" cy="484.86" fill="#ADD1B2" rx="11" ry="11" style="stroke:#181818;stroke-width:1;"/><path d="M331.2786,490.5006 Q330.7004,490.7975 330.0598,490.9381 Q329.4192,491.0944 328.7161,491.0944 Q326.2161,491.0944 324.8879,489.4537 Q323.5754,487.7975 323.5754,484.6725 Q323.5754,481.5475 324.8879,479.8912 Q326.2161,478.235 328.7161,478.235 Q329.4192,478.235 330.0598,478.3912 Q330.7161,478.5475 331.2786,478.8444 L331.2786,481.5631 Q330.6536,480.985 330.0598,480.7194 Q329.4661,480.4381 328.8411,480.4381 Q327.4973,480.4381 326.8098,481.5162 Q326.1223,482.5787 326.1223,484.6725 Q326.1223,486.7662 326.8098,487.8444 Q327.4973,488.9069 328.8411,488.9069 Q329.4661,488.9069 330.0598,488.6412 Q330.6536,488.36 331.2786,487.7819 L331.2786,490.5006 Z " fill="#000000"/><text fill="#000000" font-family="sans-serif" font-size="14" lengthAdjust="spacing" textLength="72.707" x="348.1698" y="489.7067">AresIntent</text><line style="stroke:#181818;stroke-width:0.5;" x1="287.94" x2="449.2466" y1="500.86" y2="500.86"/><text fill="#000000" font-family="sans-serif" font-size="14" lengthAdjust="spacing" textLength="81.3955" x="292.94" y="517.8551">id(i) : string</text><text fill="#000000" font-family="sans-serif" font-size="14" lengthAdjust="spacing" textLength="108.3223" x="292.94" y="534.152">name(i) : string</text><text fill="#000000" font-family="sans-serif" font-size="14" lengthAdjust="spacing" textLength="146.46" x="292.94" y="550.4489">description(i) : string</text><text fill="#000000" font-family="sans-serif" font-size="14" lengthAdjust="spacing" textLength="65.4678" x="292.94" y="566.7457">url(i) : uri</text><text fill="#000000" font-family="sans-serif" font-size="14" lengthAdjust="spacing" textLength="147.2803" x="292.94" y="583.0426">dateCreated(i) : date</text><text fill="#000000" font-family="sans-serif" font-size="14" lengthAdjust="spacing" textLength="151.3066" x="292.94" y="599.3395">dateModified(i) : date</text><line style="stroke:#181818;stroke-width:0.5;" x1="287.94" x2="449.2466" y1="606.6412" y2="606.6412"/></g></a><!--class Entity--><a href="" target="_top" title="A generic grouping for any identifiable entity." xlink:actuate="onRequest" xlink:href="" xlink:show="new" xlink:title="A generic grouping for any identifiable entity." xlink:type="simple"><g class="entity" data-entity="Entity" data-source-line="22" data-uid="ent0006" id="entity_Entity"><rect fill="#F1F1F1" height="145.7813" rx="2.5" ry="2.5" style="stroke:#181818;stroke-width:0.5;" width="148.4932" x="197.34" y="7"/><ellipse cx="246.9005" cy="23" fill="#A9DCDF" rx="11" ry="11" style="stroke:#181818;stroke-width:1;"/><path d="M247.0099,18.3438 L245.8537,23.4219 L248.1818,23.4219 L247.0099,18.3438 Z M245.5255,16.1094 L248.5099,16.1094 L251.8693,28.5 L249.4162,28.5 L248.6505,25.4375 L245.3693,25.4375 L244.6193,28.5 L242.1818,28.5 L245.5255,16.1094 Z " fill="#000000"/><text fill="#000000" font-family="sans-serif" font-size="14" font-style="italic" lengthAdjust="spacing" textLength="40.8721" x="267.4005" y="27.8467">Entity</text><line style="stroke:#181818;stroke-width:0.5;" x1="198.34" x2="344.8332" y1="39" y2="39"/><text fill="#000000" font-family="sans-serif" font-size="14" lengthAdjust="spacing" textLength="66.582" x="203.34" y="55.9951">id : string</text><text fill="#000000" font-family="sans-serif" font-size="14" lengthAdjust="spacing" textLength="93.5088" x="203.34" y="72.292">name : string</text><text fill="#000000" font-family="sans-serif" font-size="14" lengthAdjust="spacing" textLength="131.6465" x="203.34" y="88.5889">description : string</text><text fill="#000000" font-family="sans-serif" font-size="14" lengthAdjust="spacing" textLength="50.6543" x="203.34" y="104.8857">url : uri</text><text fill="#000000" font-family="sans-serif" font-size="14" lengthAdjust="spacing" textLength="132.4668" x="203.34" y="121.1826">dateCreated : date</text><text fill="#000000" font-family="sans-serif" font-size="14" lengthAdjust="spacing" textLength="136.4932" x="203.34" y="137.4795">dateModified : date</text><line style="stroke:#181818;stroke-width:0.5;" x1="198.34" x2="344.8332" y1="144.7813" y2="144.7813"/></g></a><!--class AresEvaluator--><a href="" target="_top" title="Assess success by analysing payloads and responses for safety, security, or robustness failures." xlink:actuate="onRequest" xlink:href="" xlink:show="new" xlink:title="Assess success by analysing payloads and responses for safety, security, or robustness failures." xlink:type="simple"><g class="entity" data-entity="AresEvaluator" data-source-line="32" data-uid="ent0009" id="entity_AresEvaluator"><rect fill="#F1F1F1" height="243.5625" rx="2.5" ry="2.5" style="stroke:#181818;stroke-width:0.5;" width="213.1816" x="7" y="707.94"/><ellipse cx="60.2896" cy="723.94" fill="#ADD1B2" rx="11" ry="11" style="stroke:#181818;stroke-width:1;"/><path d="M63.2583,729.5806 Q62.6802,729.8775 62.0396,730.0181 Q61.3989,730.1744 60.6958,730.1744 Q58.1958,730.1744 56.8677,728.5337 Q55.5552,726.8775 55.5552,723.7525 Q55.5552,720.6275 56.8677,718.9712 Q58.1958,717.315 60.6958,717.315 Q61.3989,717.315 62.0396,717.4712 Q62.6958,717.6275 63.2583,717.9244 L63.2583,720.6431 Q62.6333,720.065 62.0396,719.7994 Q61.4458,719.5181 60.8208,719.5181 Q59.4771,719.5181 58.7896,720.5962 Q58.1021,721.6587 58.1021,723.7525 Q58.1021,725.8462 58.7896,726.9244 Q59.4771,727.9869 60.8208,727.9869 Q61.4458,727.9869 62.0396,727.7212 Q62.6333,727.44 63.2583,726.8619 L63.2583,729.5806 Z " fill="#000000"/><text fill="#000000" font-family="sans-serif" font-size="14" lengthAdjust="spacing" textLength="98.1025" x="80.7896" y="728.7867">AresEvaluator</text><line style="stroke:#181818;stroke-width:0.5;" x1="8" x2="219.1816" y1="739.94" y2="739.94"/><text fill="#000000" font-family="sans-serif" font-size="14" lengthAdjust="spacing" textLength="85.0801" x="13" y="756.9351">type : string</text><text fill="#000000" font-family="sans-serif" font-size="14" lengthAdjust="spacing" textLength="138.8105" x="13" y="773.232">output_path : string</text><text fill="#000000" font-family="sans-serif" font-size="14" lengthAdjust="spacing" textLength="154.3213" x="13" y="789.5289">sensitive_type : string</text><text fill="#000000" font-family="sans-serif" font-size="14" lengthAdjust="spacing" textLength="182.6699" x="13" y="805.8257">exclude_prompt : boolean</text><text fill="#000000" font-family="sans-serif" font-size="14" lengthAdjust="spacing" textLength="160.4395" x="13" y="822.1226">debug_mode : boolean</text><text fill="#000000" font-family="sans-serif" font-size="14" lengthAdjust="spacing" textLength="201.1816" x="13" y="838.4195">keyword_list_or_path : string</text><text fill="#000000" font-family="sans-serif" font-size="14" lengthAdjust="spacing" textLength="81.3955" x="13" y="854.7164">id(i) : string</text><text fill="#000000" font-family="sans-serif" font-size="14" lengthAdjust="spacing" textLength="108.3223" x="13" y="871.0132">name(i) : string</text><text fill="#000000" font-family="sans-serif" font-size="14" lengthAdjust="spacing" textLength="146.46" x="13" y="887.3101">description(i) : string</text><text fill="#000000" font-family="sans-serif" font-size="14" lengthAdjust="spacing" textLength="65.4678" x="13" y="903.607">url(i) : uri</text><text fill="#000000" font-family="sans-serif" font-size="14" lengthAdjust="spacing" textLength="147.2803" x="13" y="919.9039">dateCreated(i) : date</text><text fill="#000000" font-family="sans-serif" font-size="14" lengthAdjust="spacing" textLength="151.3066" x="13" y="936.2007">dateModified(i) : date</text><line style="stroke:#181818;stroke-width:0.5;" x1="8" x2="219.1816" y1="943.5025" y2="943.5025"/></g></a><!--class ARESStrategy--><a href="" target="_top" title="Create attack payloads and run attacks for different threat models. The strategy used for red-teaming the language model and, in particular, for transforming the goal prompts saved in the previous step to adversarial attack prompts." xlink:actuate="onRequest" xlink:href="" xlink:show="new" xlink:title="Create attack payloads and run attacks for different threat models. The strategy used for red-teaming the language model and, in particular, for transforming the goal prompts saved in the previous step to adversarial attack prompts." xlink:type="simple"><g class="entity" data-entity="ARESStrategy" data-source-line="46" data-uid="ent0010" id="entity_ARESStrategy"><rect fill="#F1F1F1" height="243.5625" rx="2.5" ry="2.5" style="stroke:#181818;stroke-width:0.5;" width="172.1182" x="461.53" y="707.94"/><ellipse cx="495.9231" cy="723.94" fill="#ADD1B2" rx="11" ry="11" style="stroke:#181818;stroke-width:1;"/><path d="M498.8918,729.5806 Q498.3137,729.8775 497.6731,730.0181 Q497.0324,730.1744 496.3293,730.1744 Q493.8293,730.1744 492.5012,728.5337 Q491.1887,726.8775 491.1887,723.7525 Q491.1887,720.6275 492.5012,718.9712 Q493.8293,717.315 496.3293,717.315 Q497.0324,717.315 497.6731,717.4712 Q498.3293,717.6275 498.8918,717.9244 L498.8918,720.6431 Q498.2668,720.065 497.6731,719.7994 Q497.0793,719.5181 496.4543,719.5181 Q495.1106,719.5181 494.4231,720.5962 Q493.7356,721.6587 493.7356,723.7525 Q493.7356,725.8462 494.4231,726.9244 Q495.1106,727.9869 496.4543,727.9869 Q497.0793,727.9869 497.6731,727.7212 Q498.2668,727.44 498.8918,726.8619 L498.8918,729.5806 Z " fill="#000000"/><text fill="#000000" font-family="sans-serif" font-size="14" lengthAdjust="spacing" textLength="97.0225" x="514.2326" y="728.7867">ARESStrategy</text><line style="stroke:#181818;stroke-width:0.5;" x1="462.53" x2="632.6482" y1="739.94" y2="739.94"/><text fill="#000000" font-family="sans-serif" font-size="14" lengthAdjust="spacing" textLength="85.0801" x="467.53" y="756.9351">type : string</text><text fill="#000000" font-family="sans-serif" font-size="14" lengthAdjust="spacing" textLength="128.6455" x="467.53" y="773.232">input_path : string</text><text fill="#000000" font-family="sans-serif" font-size="14" lengthAdjust="spacing" textLength="138.8105" x="467.53" y="789.5289">output_path : string</text><text fill="#000000" font-family="sans-serif" font-size="14" lengthAdjust="spacing" textLength="160.1182" x="467.53" y="805.8257">jailbreaks_path : string</text><text fill="#000000" font-family="sans-serif" font-size="14" lengthAdjust="spacing" textLength="94.5137" x="467.53" y="822.1226">probe : string</text><text fill="#000000" font-family="sans-serif" font-size="14" lengthAdjust="spacing" textLength="124.2979" x="467.53" y="838.4195">templates : string</text><text fill="#000000" font-family="sans-serif" font-size="14" lengthAdjust="spacing" textLength="81.3955" x="467.53" y="854.7164">id(i) : string</text><text fill="#000000" font-family="sans-serif" font-size="14" lengthAdjust="spacing" textLength="108.3223" x="467.53" y="871.0132">name(i) : string</text><text fill="#000000" font-family="sans-serif" font-size="14" lengthAdjust="spacing" textLength="146.46" x="467.53" y="887.3101">description(i) : string</text><text fill="#000000" font-family="sans-serif" font-size="14" lengthAdjust="spacing" textLength="65.4678" x="467.53" y="903.607">url(i) : uri</text><text fill="#000000" font-family="sans-serif" font-size="14" lengthAdjust="spacing" textLength="147.2803" x="467.53" y="919.9039">dateCreated(i) : date</text><text fill="#000000" font-family="sans-serif" font-size="14" lengthAdjust="spacing" textLength="151.3066" x="467.53" y="936.2007">dateModified(i) : date</text><line style="stroke:#181818;stroke-width:0.5;" x1="462.53" x2="632.6482" y1="943.5025" y2="943.5025"/></g></a><!--class ARESGoal--><a href="" target="_top" title="Base ARES Goal. Specify the high-level attack intent, like provoking harmful responses on context-specific attack seeds." xlink:actuate="onRequest" xlink:href="" xlink:show="new" xlink:title="Base ARES Goal. Specify the high-level attack intent, like provoking harmful responses on context-specific attack seeds." xlink:type="simple"><g class="entity" data-entity="ARESGoal" data-source-line="60" data-uid="ent0011" id="entity_ARESGoal"><rect fill="#F1F1F1" height="276.1563" rx="2.5" ry="2.5" style="stroke:#181818;stroke-width:0.5;" width="171.6738" x="254.75" y="691.64"/><ellipse cx="301.877" cy="707.64" fill="#ADD1B2" rx="11" ry="11" style="stroke:#181818;stroke-width:1;"/><path d="M304.8457,713.2806 Q304.2676,713.5775 303.627,713.7181 Q302.9863,713.8744 302.2832,713.8744 Q299.7832,713.8744 298.4551,712.2337 Q297.1426,710.5775 297.1426,707.4525 Q297.1426,704.3275 298.4551,702.6712 Q299.7832,701.015 302.2832,701.015 Q302.9863,701.015 303.627,701.1712 Q304.2832,701.3275 304.8457,701.6244 L304.8457,704.3431 Q304.2207,703.765 303.627,703.4994 Q303.0332,703.2181 302.4082,703.2181 Q301.0645,703.2181 300.377,704.2962 Q299.6895,705.3587 299.6895,707.4525 Q299.6895,709.5462 300.377,710.6244 Q301.0645,711.6869 302.4082,711.6869 Q303.0332,711.6869 303.627,711.4212 Q304.2207,711.14 304.8457,710.5619 L304.8457,713.2806 Z " fill="#000000"/><text fill="#000000" font-family="sans-serif" font-size="14" lengthAdjust="spacing" textLength="68.9199" x="322.377" y="712.4867">ARESGoal</text><line style="stroke:#181818;stroke-width:0.5;" x1="255.75" x2="425.4238" y1="723.64" y2="723.64"/><text fill="#000000" font-family="sans-serif" font-size="14" lengthAdjust="spacing" textLength="85.0801" x="260.75" y="740.6351">type : string</text><text fill="#000000" font-family="sans-serif" font-size="14" lengthAdjust="spacing" textLength="93.666" x="260.75" y="756.932">origin : string</text><text fill="#000000" font-family="sans-serif" font-size="14" lengthAdjust="spacing" textLength="126.0068" x="260.75" y="773.2289">base_path : string</text><text fill="#000000" font-family="sans-serif" font-size="14" lengthAdjust="spacing" textLength="138.8105" x="260.75" y="789.5257">output_path : string</text><text fill="#000000" font-family="sans-serif" font-size="14" lengthAdjust="spacing" textLength="83.7266" x="260.75" y="805.8226">goal : string</text><text fill="#000000" font-family="sans-serif" font-size="14" lengthAdjust="spacing" textLength="159.6738" x="260.75" y="822.1195">builder_kwargs : string</text><text fill="#000000" font-family="sans-serif" font-size="14" lengthAdjust="spacing" textLength="140.3486" x="260.75" y="838.4164">task_kwargs : string</text><text fill="#000000" font-family="sans-serif" font-size="14" lengthAdjust="spacing" textLength="144.252" x="260.75" y="854.7132">base_kwargs : string</text><text fill="#000000" font-family="sans-serif" font-size="14" lengthAdjust="spacing" textLength="81.3955" x="260.75" y="871.0101">id(i) : string</text><text fill="#000000" font-family="sans-serif" font-size="14" lengthAdjust="spacing" textLength="108.3223" x="260.75" y="887.307">name(i) : string</text><text fill="#000000" font-family="sans-serif" font-size="14" lengthAdjust="spacing" textLength="146.46" x="260.75" y="903.6039">description(i) : string</text><text fill="#000000" font-family="sans-serif" font-size="14" lengthAdjust="spacing" textLength="65.4678" x="260.75" y="919.9007">url(i) : uri</text><text fill="#000000" font-family="sans-serif" font-size="14" lengthAdjust="spacing" textLength="147.2803" x="260.75" y="936.1976">dateCreated(i) : date</text><text fill="#000000" font-family="sans-serif" font-size="14" lengthAdjust="spacing" textLength="151.3066" x="260.75" y="952.4945">dateModified(i) : date</text><line style="stroke:#181818;stroke-width:0.5;" x1="255.75" x2="425.4238" y1="959.7962" y2="959.7962"/></g></a><!--link RiskToARESMapping to RiskToARESIntent--><g class="link" data-entity-1="RiskToARESMapping" data-entity-2="RiskToARESIntent" data-source-line="13" data-uid="lnk4" id="link_RiskToARESMapping_RiskToARESIntent"><path codeLine="13" d="M572.286,113.2753 C547.656,142.4953 515.6572,180.4526 478.3372,224.7226" fill="none" id="RiskToARESMapping-RiskToARESIntent" style="stroke:#181818;stroke-width:1;"/><polygon fill="#181818" points="580.02,104.1,573.0946,106.1096,572.286,113.2753,579.2114,111.2656,580.02,104.1" style="stroke:#181818;stroke-width:1;"/><polygon fill="#181818" points="474.47,229.31,483.3291,225.007,477.6927,225.4871,477.2126,219.8507,474.47,229.31" style="stroke:#181818;stroke-width:1;"/><text fill="#000000" font-family="sans-serif" font-size="13" lengthAdjust="spacing" textLength="64.0098" x="509.59" y="195.8469">mappings</text><text fill="#000000" font-family="sans-serif" font-size="13" lengthAdjust="spacing" textLength="23.0356" x="456.3164" y="218.7334">0..*</text></g><!--link RiskToARESIntent to AresIntent--><g class="link" data-entity-1="RiskToARESIntent" data-entity-2="AresIntent" data-source-line="30" data-uid="lnk7" id="link_RiskToARESIntent_AresIntent"><path codeLine="30" d="M391.2842,404.0479 C387.1542,428.9179 385.5824,438.381 381.5524,462.661" fill="none" id="RiskToARESIntent-AresIntent" style="stroke:#181818;stroke-width:1;"/><polygon fill="#181818" points="393.25,392.21,388.3211,397.4737,391.2842,404.0479,396.213,398.7842,393.25,392.21" style="stroke:#181818;stroke-width:1;"/><polygon fill="#181818" points="380.57,468.58,385.9897,460.3564,381.3887,463.6475,378.0976,459.0465,380.57,468.58" style="stroke:#181818;stroke-width:1;"/><text fill="#000000" font-family="sans-serif" font-size="13" lengthAdjust="spacing" textLength="38.2827" x="388.59" y="434.9269">intent</text><text fill="#000000" font-family="sans-serif" font-size="13" lengthAdjust="spacing" textLength="8.271" x="373.3685" y="457.7124">1</text></g><!--reverse link Entity to RiskToARESIntent--><g class="link" data-entity-1="Entity" data-entity-2="RiskToARESIntent" data-source-line="31" data-uid="lnk8" id="link_Entity_RiskToARESIntent"><path codeLine="31" d="M323.2631,168.5149 C337.5631,192.7649 344.46,204.46 359.11,229.31" fill="none" id="Entity-backto-RiskToARESIntent" style="stroke:#181818;stroke-width:1;"/><polygon fill="none" points="314.12,153.01,318.0948,171.5627,328.4314,165.4672,314.12,153.01" style="stroke:#181818;stroke-width:1;"/></g><!--reverse link Entity to AresIntent--><g class="link" data-entity-1="Entity" data-entity-2="AresIntent" data-source-line="76" data-uid="lnk12" id="link_Entity_AresIntent"><path codeLine="76" d="M275.431,171.2087 C279.191,234.8887 286.96,311.73 307.59,391.86 C314.21,417.56 324.32,444.69 334.41,468.65" fill="none" id="Entity-backto-AresIntent" style="stroke:#181818;stroke-width:1;"/><polygon fill="none" points="274.37,153.24,269.4414,171.5624,281.4205,170.855,274.37,153.24" style="stroke:#181818;stroke-width:1;"/></g><!--reverse link Entity to AresEvaluator--><g class="link" data-entity-1="Entity" data-entity-2="AresEvaluator" data-source-line="77" data-uid="lnk13" id="link_Entity_AresEvaluator"><path codeLine="77" d="M241.3373,170.2283 C233.5673,194.4283 230.89,204.54 224.59,229.78 C183.73,393.57 150.67,585.97 131.57,707.62" fill="none" id="Entity-backto-AresEvaluator" style="stroke:#181818;stroke-width:1;"/><polygon fill="none" points="246.84,153.09,235.6246,168.3941,247.0501,172.0625,246.84,153.09" style="stroke:#181818;stroke-width:1;"/></g><!--reverse link Entity to ARESStrategy--><g class="link" data-entity-1="Entity" data-entity-2="ARESStrategy" data-source-line="78" data-uid="lnk14" id="link_Entity_ARESStrategy"><path codeLine="78" d="M362.6554,114.2319 C416.8054,137.5219 470.05,170.1 505.59,229.78 C592.72,376.11 585.74,579.6 569.29,707.7" fill="none" id="Entity-backto-ARESStrategy" style="stroke:#181818;stroke-width:1;"/><polygon fill="none" points="346.12,107.12,360.2848,119.7437,365.0261,108.7201,346.12,107.12" style="stroke:#181818;stroke-width:1;"/></g><!--reverse link Entity to ARESGoal--><g class="link" data-entity-1="Entity" data-entity-2="ARESGoal" data-source-line="79" data-uid="lnk15" id="link_Entity_ARESGoal"><path codeLine="79" d="M254.7139,170.9606 C236.0239,282.0606 212.73,482.89 255.59,661.64 C257.98,671.61 261.07,681.66 264.65,691.61" fill="none" id="Entity-backto-ARESGoal" style="stroke:#181818;stroke-width:1;"/><polygon fill="none" points="257.7,153.21,248.797,169.9652,260.6307,171.956,257.7,153.21" style="stroke:#181818;stroke-width:1;"/></g><!--link AresIntent to AresEvaluator--><g class="link" data-entity-1="AresIntent" data-entity-2="AresEvaluator" data-source-line="80" data-uid="lnk16" id="link_AresIntent_AresEvaluator"><path codeLine="80" d="M296.2534,623.8762 C270.8834,652.3262 253.0128,672.3614 224.5728,704.2614" fill="none" id="AresIntent-AresEvaluator" style="stroke:#181818;stroke-width:1;"/><polygon fill="#181818" points="304.24,614.92,297.2613,616.7359,296.2534,623.8762,303.2321,622.0603,304.24,614.92" style="stroke:#181818;stroke-width:1;"/><polygon fill="#181818" points="220.58,708.74,229.5549,704.684,223.9073,705.0079,223.5835,699.3603,220.58,708.74" style="stroke:#181818;stroke-width:1;"/><text fill="#000000" font-family="sans-serif" font-size="13" lengthAdjust="spacing" textLength="68.377" x="271.59" y="657.7069">evaluation</text><text fill="#000000" font-family="sans-serif" font-size="13" lengthAdjust="spacing" textLength="8.271" x="219.831" y="696.7777">1</text></g><!--link AresIntent to ARESStrategy--><g class="link" data-entity-1="AresIntent" data-entity-2="ARESStrategy" data-source-line="81" data-uid="lnk17" id="link_AresIntent_ARESStrategy"><path codeLine="81" d="M420.1291,625.0903 C437.7391,653.2103 448.8578,670.9734 468.6078,702.5434" fill="none" id="AresIntent-ARESStrategy" style="stroke:#181818;stroke-width:1;"/><polygon fill="#181818" points="413.76,614.92,413.5544,622.1282,420.1291,625.0903,420.3346,617.8821,413.76,614.92" style="stroke:#181818;stroke-width:1;"/><polygon fill="#181818" points="471.79,707.63,470.4078,697.8786,469.1382,703.3911,463.6257,702.1215,471.79,707.63" style="stroke:#181818;stroke-width:1;"/><text fill="#000000" font-family="sans-serif" font-size="13" lengthAdjust="spacing" textLength="54.2217" x="442.59" y="657.7069">strategy</text><text fill="#000000" font-family="sans-serif" font-size="13" lengthAdjust="spacing" textLength="23.0356" x="443.4713" y="696.804">1..*</text></g><!--link AresIntent to ARESGoal--><g class="link" data-entity-1="AresIntent" data-entity-2="ARESGoal" data-source-line="82" data-uid="lnk18" id="link_AresIntent_ARESGoal"><path codeLine="82" d="M360.3578,626.8626 C358.0678,650.1926 357.2149,658.9686 354.6249,685.4086" fill="none" id="AresIntent-ARESGoal" style="stroke:#181818;stroke-width:1;"/><polygon fill="#181818" points="361.53,614.92,356.963,620.5006,360.3578,626.8626,364.9247,621.2821,361.53,614.92" style="stroke:#181818;stroke-width:1;"/><polygon fill="#181818" points="354.04,691.38,358.8984,682.8128,354.5275,686.4038,350.9365,682.0329,354.04,691.38" style="stroke:#181818;stroke-width:1;"/><text fill="#000000" font-family="sans-serif" font-size="13" lengthAdjust="spacing" textLength="27.7837" x="358.59" y="657.7069">goal</text><text fill="#000000" font-family="sans-serif" font-size="13" lengthAdjust="spacing" textLength="8.271" x="346.5644" y="680.475">1</text></g><!--SRC=[tLR1Zjj63BtxAmYTqc1jjDSS2coBHP53UiZc5gG69L7onACPOSXnLbZilvSpidVjhQHDqDF61ziI-SYPnpVaL1QPeVXeUF_9Nt-ykVs0VMzSMy3dp_VN3c9N1h8MmPTVgHAG7GhilAqPkj4JZ6D1Ln534tm7AHHSYyQ5l-akCeY757ZpyEKBtAzM3wlgUSxtJiX9JlbfHt3ZnCYGiwJuJtaQ7peKuzsOAQHCx-kKG1IM8a4WVIRi4g3ohZ5j31boJ0_wkMyCsVeXuxUcXdV04X80BiocVcD-cJCwx6Z1N1DNmVGfyO9N37Qqnc2U1q2XFmFfzt4LwSM4pmTV6tsyT7fOJHNqxNhzEnI_RZPlYodotq5nP9gBKuck0_5PSJB3aRNI9hzCp2i6qDM0KNmgJeNM3X2Y0wPWrDKtW29OxNcY1A-POomr8UgPA4R1ZXH1IqutNa4RVCowLTKgGuFkLIdJG5XQ0igGIKQMwFWEBXQ8U8c5bocOqTX98wF4VYikbQFA6lLIh1wf-cUzdX3XkUvk3cWZYWyZhwooO-1OLUct79HIj0EdVVOuM8_QaP8E5TbxbpIQU6TiI8OhrMAbEq__z6NmPMHnAKw3naQ5J1H2XdwMRX-bZxBjKNPpBaoEZPW3RPS2qLrbOqtRNljPB-fLUcy9tN_AMyPss_cQPbtsD7ppeTvQmxBrON5jh_dKdHIYehdLuoVKZWTl37biDSyaeStes8AoA3HkGo7thrr2GIBMyWRIyE5ZqDJdwkok8sLz6YbfpbXqRSIMHbZASANzK5C6xNxHOhZAC8tZE4si4wxrQ64ij0eP3nfUOSdI1peOhwEIXVhKLB4-K60CHX6d7Ot07nIgSI_fz3ka_5KFYTu2SC-BRhh2SdOXGbrlbLZ-oJNvbnOvw_4FvEEL9BtQm6rFbMc6NE-TQNThImTwhExO7w_0cdsIWp_uVTh03aFNH7lMrBI_wxL6w4xMd2Fgf3d6OABwXnjPCAsP7Hcbxk7_YYUhVYv-DBQciDr_mz3EAaDGhsdBBdcXoowl-ZPtCJNFHkk4vMbiFZUUTym9MrRkwc9mNuxpiu6i4vt69wLa6ZHUCo_RjCBuQGKpcHuFaNedyHJ_0W00]--></g></svg>